<?xml version="1.0" encoding="utf-8"?>
<!-- Generator: Adobe Illustrator 23.0.3, SVG Export Plug-In . SVG Version: 6.00 Build 0)  -->
<svg version="1.1" id="Layer_1" xmlns="http://www.w3.org/2000/svg" xmlns:xlink="http://www.w3.org/1999/xlink" x="0px" y="0px"
	 viewBox="0 0 45.05 25.125" style="enable-background:new 0 0 45.05 25.125;" xml:space="preserve">
<style type="text/css">
	.st0{fill:url(#SVGID_1_);}
</style>
<linearGradient id="SVGID_1_" gradientUnits="userSpaceOnUse" x1="43.9709" y1="13.5618" x2="1.0671" y2="13.5618" gradientTransform="matrix(1 0 0 -1 0 26.1241)">
	<stop  offset="0.2865" style="stop-color:#F8886C"/>
	<stop  offset="0.7812" style="stop-color:#1FA9C8"/>
</linearGradient>
<path class="st0" d="M41.054,25.125c-1.366,0-2.697-0.7-3.444-1.961l-6.55-11.045l-5.887,10.905
	c-0.673,1.246-1.954,2.043-3.37,2.097c-1.405,0.049-2.753-0.646-3.518-1.838l-5.471-8.53l-5.442,8.523
	c-1.189,1.862-3.662,2.407-5.524,1.219c-1.862-1.188-2.408-3.662-1.219-5.523L9.435,5.179c0.734-1.15,2.003-1.846,3.368-1.848
	c0.001,0,0.002,0,0.004,0c1.362,0,2.631,0.693,3.367,1.84l5.183,8.081l6.02-11.152c0.685-1.269,1.998-2.07,3.438-2.099
	c1.482-0.04,2.786,0.719,3.521,1.958L44.49,19.084c1.127,1.899,0.5,4.354-1.4,5.48C42.45,24.944,41.747,25.125,41.054,25.125z"/>
</svg>
