<?xml version="1.0" encoding="utf-8"?>
<!-- Generator: Adobe Illustrator 23.0.3, SVG Export Plug-In . SVG Version: 6.00 Build 0)  -->
<svg version="1.1" id="Layer_1" xmlns="http://www.w3.org/2000/svg" xmlns:xlink="http://www.w3.org/1999/xlink" x="0px" y="0px"
	 viewBox="0 0 270 176.184" style="enable-background:new 0 0 270 176.184;" xml:space="preserve">
<style type="text/css">
	.st0{fill-rule:evenodd;clip-rule:evenodd;fill:#405364;}
	.st1{fill-rule:evenodd;clip-rule:evenodd;fill:url(#SVGID_1_);}
</style>
<path class="st0" d="M246.227,176.184l3.615-9.222h-0.068l5.339-13.444l5.268,13.444h-0.036l3.59,9.222H270l-11.685-27.646h-6.284
	l-11.685,27.646H246.227z M0,176.184h10.106c8.631,0,15.82-4.625,15.82-13.802v-0.084c0-9.144-7.085-13.544-15.649-13.544H0V176.184
	z M5.7,171.43v-17.918h4.706c5.507,0,9.606,3.195,9.606,8.915v0.084c0,5.749-4.077,8.919-9.606,8.919H5.7z M44.919,176.184h5.742
	v-27.43h-5.742V176.184z M84.486,176.785c8.147,0,14.919-6.03,14.919-14.316v-0.087c0-8.305-6.704-14.232-14.832-14.232
	c-8.147,0-14.916,6.033-14.916,14.316v0.087C69.657,170.862,76.358,176.785,84.486,176.785z M84.573,171.901
	c-5.239,0-9.003-4.325-9.003-9.432v-0.087c0-5.106,3.673-9.345,8.915-9.345c5.258,0,9.044,4.297,9.044,9.432v0.087
	C93.533,167.689,89.831,171.901,84.573,171.901z M118.268,176.184h5.701v-8.589h5.436c6.132,0,11.61-2.724,11.61-9.506v-0.084
	c0-6.578-5.184-9.248-11.181-9.248h-11.566V176.184z M123.969,163.699v-10.574h5.222c3.354,0,6.124,1.639,6.124,5.264v0.087
	c0,3.477-2.854,5.223-6.082,5.223L123.969,163.699L123.969,163.699z M166.409,176.184h5.7v-22.759h9.019v-4.671H157.39v4.671h9.019
	V176.184L166.409,176.184z M199.304,176.184h5.7v-9.105h5.671l6.056,9.105h6.42l-6.669-9.745l1.479-0.629
	c3.479-1.478,5.38-4.193,5.38-8.021v-0.087c0-2.302-0.59-4.426-2.285-6.082c-2.253-2.301-5.768-2.866-8.851-2.866h-12.898v27.43
	L199.304,176.184L199.304,176.184z M205.004,163.182v-9.844h6.769c3.118,0,5.823,1.459,5.823,4.88v0.087
	c0,3.331-2.721,4.881-5.781,4.881h-6.811L205.004,163.182L205.004,163.182z"/>
<linearGradient id="SVGID_1_" gradientUnits="userSpaceOnUse" x1="93.966" y1="1125.8684" x2="197.2565" y2="1064.5414" gradientTransform="matrix(1 0 0 1 0 -1022)">
	<stop  offset="0.2135" style="stop-color:#F8886C"/>
	<stop  offset="0.8542" style="stop-color:#1FA9C8"/>
</linearGradient>
<path class="st1" d="M168.683,71.994c-2.102,7.585-6.598,13.363-13.531,17.366c-6.94,4.006-14.18,5.006-21.808,3.034
	c-7.598-1.966-13.402-6.359-17.314-13.128l-4.251-7.366l3.331-1.924l3.26,5.649l3.331-1.924l-3.26-5.646l-1.452-2.518l3.331-1.924
	l1.452,2.518l1.982,3.434l3.328-1.92l-1.982-3.431l3.331-1.924l3.774,6.536l3.328-1.921l-3.774-6.533l-2.721-4.713l3.328-1.924
	l2.725,4.713l2.611,4.525l3.328-1.921l-2.612-4.522l3.332-1.927l5.777,10.013l3.328-1.924l-5.778-10.009l-0.936-1.624l3.328-1.924
	l0.936,1.624l1.388,2.405l3.332-1.924l-1.385-2.402l-2.089-3.612l3.328-1.927l2.089,3.615l2.056,3.56l3.328-1.924l-2.06-3.557
	l3.325-1.921l4.254,7.366C169.877,57.207,170.781,64.431,168.683,71.994z M170.916,116.671c14.035-8.102,23.822-20.63,28.151-36.249
	c4.331-15.629,2.32-31.697-5.791-45.745L173.263,0L68.706,60.37l20.026,34.674c8.147,14.103,20.949,23.802,36.717,27.882
	C141.101,126.974,156.911,124.753,170.916,116.671z"/>
</svg>
