<?xml version="1.0" encoding="utf-8"?>
<!-- Generator: Adobe Illustrator 23.0.3, SVG Export Plug-In . SVG Version: 6.00 Build 0)  -->
<svg version="1.1" id="Layer_1" xmlns="http://www.w3.org/2000/svg" xmlns:xlink="http://www.w3.org/1999/xlink" x="0px" y="0px"
	 viewBox="0 0 41.077 38.695" style="enable-background:new 0 0 41.077 38.695;" xml:space="preserve">
<style type="text/css">
	.st0{fill-rule:evenodd;clip-rule:evenodd;fill:url(#SVGID_1_);}
</style>
<linearGradient id="SVGID_1_" gradientUnits="userSpaceOnUse" x1="7.8258" y1="1192.1792" x2="39.8258" y2="1173.1792" gradientTransform="matrix(1 0 0 1 0 -1160)">
	<stop  offset="0.2135" style="stop-color:#F8886C"/>
	<stop  offset="0.8542" style="stop-color:#1FA9C8"/>
</linearGradient>
<path class="st0" d="M30.973,22.304c-0.651,2.35-2.044,4.14-4.192,5.38c-2.15,1.241-4.393,1.551-6.756,0.94
	c-2.354-0.609-4.152-1.97-5.364-4.067l-1.317-2.282l1.032-0.596l1.01,1.75l1.032-0.596l-1.01-1.749l-0.45-0.78l1.032-0.596
	l0.45,0.78l0.614,1.064l1.031-0.595l-0.614-1.063l1.032-0.596l1.169,2.025l1.031-0.595l-1.169-2.024l-0.843-1.46l1.031-0.596
	l0.844,1.46l0.809,1.402l1.031-0.595l-0.809-1.401l1.032-0.597l1.79,3.102l1.031-0.596l-1.79-3.101l-0.29-0.503l1.031-0.596
	l0.29,0.503l0.43,0.745l1.032-0.596l-0.429-0.744l-0.647-1.119l1.031-0.597l0.647,1.12l0.637,1.103l1.031-0.596l-0.636-1.102
	l1.03-0.595l1.318,2.282C31.344,17.723,31.623,19.961,30.973,22.304z M31.666,36.145c4.348-2.51,7.38-6.391,8.721-11.23
	c1.342-4.842,0.719-9.82-1.794-14.172L32.392,0L0,18.703l6.204,10.742c2.524,4.369,6.49,7.374,11.375,8.638
	C22.429,39.337,27.327,38.649,31.666,36.145z"/>
</svg>
